<svg xmlns="http://www.w3.org/2000/svg" xmlns:xlink="http://www.w3.org/1999/xlink" viewBox="0 0 670.68 800"><defs><style>.cls-1{isolation:isolate;}.cls-2{fill:#1039ec;}.cls-3,.cls-4{opacity:0.48;mix-blend-mode:multiply;}.cls-3{fill:url(#radial-gradient);}.cls-4{fill:url(#radial-gradient-2);}</style><radialGradient id="radial-gradient" cx="393.86" cy="135.71" r="140.84" gradientUnits="userSpaceOnUse"><stop offset="0" stop-color="#202021" stop-opacity="0.76"/><stop offset="1" stop-color="#fff"/></radialGradient><radialGradient id="radial-gradient-2" cx="201.55" cy="497.13" r="164.73" gradientUnits="userSpaceOnUse"><stop offset="0" stop-color="#202021"/><stop offset="1" stop-color="#fff"/></radialGradient></defs><g class="cls-1"><g id="Layer_1" data-name="Layer 1"><path class="cls-2" d="M604.13,301,569.5,332.87c-27.92,25.74-73,5.12-71.87-32.83l7.19-232Z" transform="translate(-64.39 0)"/><path class="cls-2" d="M712.38,604.53c33.68,33.68,29.22,89.34-9.15,117.56A399.49,399.49,0,0,1,460.36,800C203.48,796.72,4.87,552.12,80.78,282.52h240V25.9C449.83-22.24,596-1.51,702.69,75.2a77.63,77.63,0,0,1,9.65,117.93L604.13,301.35a169.54,169.54,0,0,0-87.56-64.13c-4-1.31-8.13-2.43-12.28-3.37-1.62-.43-3.24-.74-4.92-1.06-.81-.18-1.62-.37-2.43-.49a167.61,167.61,0,0,0-43.25-2.5,18.24,18.24,0,0,0-2.55.19c-35.12,3.19-67.59,15-102.08,39.07-6.9,4.77-12.32,11.52-16.77,18.51-136.07,209.27,141.47,385,271.84,208.71Z" transform="translate(-64.39 0)"/><path class="cls-3" d="M553.78,133a164,164,0,0,1-37.21,104.26,161.21,161.21,0,0,0-17.2-4.43c-.81-.18-1.62-.37-2.43-.49a167.56,167.56,0,0,0-43.25-2.5c-45.46,2.84-88.73,25.45-117.22,59.27-1.43-.5-2.8-.94-4.18-1.5-4.17-1.49-8.28-3.18-12.27-5.05h.75V25.9C377.54,5.89,433.5-2,486.72.41A164.39,164.39,0,0,1,553.78,133Z" transform="translate(-64.39 0)"/><path class="cls-2" d="M459.84,568.17a169.48,169.48,0,0,1-62.43-324.55c41.65-18.32,68.12-60,68.12-105.51,0-83.75-86.2-140-162.74-106C162.34,94.53,64.39,235.27,64.39,398.87c0,219.63,176.52,398,395.45,401.07Z" transform="translate(-64.39 0)"/><path class="cls-4" d="M362.23,533.14c-49.32-36.69-76.55-105.48-62.65-168.63-73.53-56.46-185.8-35.81-235,40.91a399.33,399.33,0,0,0,92.82,250.15C246.67,682,344.09,621.94,362.23,533.14Z" transform="translate(-64.39 0)"/><path class="cls-2" d="M209.71,409.18c-86.06,0-141.91,90.44-103.72,167.55,64.74,130.71,198.6,221.07,353.85,223.21V568.17a169.41,169.41,0,0,1-146.3-94.4A115.81,115.81,0,0,0,209.71,409.18Z" transform="translate(-64.39 0)"/><path class="cls-2" d="M604.13,496.28,569.5,464.37c-27.92-25.74-73-5.12-71.87,32.83l7.19,232Z" transform="translate(-64.39 0)"/></g></g></svg>